<svg width="16" height="17" viewBox="0 0 16 17" fill="none" xmlns="http://www.w3.org/2000/svg">
<path d="M8 2.29688C9.71092 2.29869 11.3517 2.97867 12.5615 4.18848C13.7713 5.39828 14.4513 7.03908 14.4531 8.75L14.4482 8.98926C14.404 10.1817 14.0299 11.3402 13.3652 12.335C12.7005 13.3298 11.7734 14.119 10.6885 14.6162L10.4697 14.7119C9.29062 15.2003 7.99295 15.3281 6.74121 15.0791C5.56767 14.8457 4.48391 14.2906 3.60938 13.4785L3.43652 13.3135C2.53404 12.411 1.91989 11.2606 1.6709 10.0088C1.43749 8.83524 1.53557 7.62165 1.95117 6.50293L2.03809 6.28027C2.49603 5.1748 3.25162 4.21979 4.21875 3.52051L4.41504 3.38477C5.40983 2.72007 6.56826 2.34599 7.76074 2.30176L8 2.29688ZM10.123 3.625C9.17286 3.23142 8.13292 3.11071 7.12012 3.27344L6.91797 3.30957C5.84198 3.5236 4.85387 4.05238 4.07812 4.82812C3.35095 5.5553 2.84079 6.46892 2.60352 7.4668L2.55957 7.66797C2.34558 8.74392 2.45519 9.85953 2.875 10.873C3.29482 11.8865 4.0059 12.7528 4.91797 13.3623C5.77322 13.9338 6.7697 14.255 7.79492 14.293L8 14.2969C9.4706 14.2952 10.8801 13.7098 11.9199 12.6699C12.9598 11.6301 13.5452 10.2206 13.5469 8.75L13.543 8.54492C13.505 7.5197 13.1838 6.52322 12.6123 5.66797C12.0028 4.7559 11.1365 4.04482 10.123 3.625ZM8 4.79688C8.12018 4.79688 8.23534 4.84471 8.32031 4.92969C8.40529 5.01466 8.45312 5.12982 8.45312 5.25V8.29688H11.5C11.6202 8.29688 11.7353 8.34471 11.8203 8.42969C11.9053 8.51466 11.9531 8.62982 11.9531 8.75C11.9531 8.87018 11.9053 8.98534 11.8203 9.07031C11.7353 9.15529 11.6202 9.20312 11.5 9.20312H8C7.87982 9.20312 7.76466 9.15529 7.67969 9.07031C7.59471 8.98534 7.54688 8.87018 7.54688 8.75V5.25C7.54688 5.12982 7.59471 5.01466 7.67969 4.92969C7.76466 4.84471 7.87982 4.79688 8 4.79688Z" fill="#818183" stroke="#818183" stroke-width="0.09375"/>
</svg>
