<svg width="16" height="17" viewBox="0 0 16 17" fill="none" xmlns="http://www.w3.org/2000/svg">
<path d="M13.5 3.25H2.5C2.23478 3.25 1.98043 3.35536 1.79289 3.54289C1.60536 3.73043 1.5 3.98478 1.5 4.25V13.25C1.5 13.5152 1.60536 13.7696 1.79289 13.9571C1.98043 14.1446 2.23478 14.25 2.5 14.25H13.5C13.7652 14.25 14.0196 14.1446 14.2071 13.9571C14.3946 13.7696 14.5 13.5152 14.5 13.25V4.25C14.5 3.98478 14.3946 3.73043 14.2071 3.54289C14.0196 3.35536 13.7652 3.25 13.5 3.25ZM13.5 13.25H2.5V4.25H13.5V13.25ZM11.5 6.75C11.5 6.88261 11.4473 7.00979 11.3536 7.10355C11.2598 7.19732 11.1326 7.25 11 7.25H5C4.86739 7.25 4.74021 7.19732 4.64645 7.10355C4.55268 7.00979 4.5 6.88261 4.5 6.75C4.5 6.61739 4.55268 6.49021 4.64645 6.39645C4.74021 6.30268 4.86739 6.25 5 6.25H11C11.1326 6.25 11.2598 6.30268 11.3536 6.39645C11.4473 6.49021 11.5 6.61739 11.5 6.75ZM11.5 8.75C11.5 8.88261 11.4473 9.00979 11.3536 9.10355C11.2598 9.19732 11.1326 9.25 11 9.25H5C4.86739 9.25 4.74021 9.19732 4.64645 9.10355C4.55268 9.00979 4.5 8.88261 4.5 8.75C4.5 8.61739 4.55268 8.49021 4.64645 8.39645C4.74021 8.30268 4.86739 8.25 5 8.25H11C11.1326 8.25 11.2598 8.30268 11.3536 8.39645C11.4473 8.49021 11.5 8.61739 11.5 8.75ZM11.5 10.75C11.5 10.8826 11.4473 11.0098 11.3536 11.1036C11.2598 11.1973 11.1326 11.25 11 11.25H5C4.86739 11.25 4.74021 11.1973 4.64645 11.1036C4.55268 11.0098 4.5 10.8826 4.5 10.75C4.5 10.6174 4.55268 10.4902 4.64645 10.3964C4.74021 10.3027 4.86739 10.25 5 10.25H11C11.1326 10.25 11.2598 10.3027 11.3536 10.3964C11.4473 10.4902 11.5 10.6174 11.5 10.75Z" fill="#818183"/>
</svg>
