<svg width="16" height="17" viewBox="0 0 16 17" fill="none" xmlns="http://www.w3.org/2000/svg">
<path d="M7.99951 2.29492C8.85265 2.29492 9.68553 2.53998 10.3999 2.99707L10.6987 3.20605C11.4743 3.79705 12.0347 4.6263 12.2935 5.56641C12.5521 6.50666 12.4955 7.50648 12.1313 8.41113C11.7672 9.31571 11.1157 10.0754 10.2778 10.5742L10.189 10.627L10.2876 10.6592C11.8818 11.1802 13.2625 12.2432 14.2085 13.7217L14.3921 14.0234V14.0244C14.4237 14.076 14.4455 14.1335 14.4546 14.1934C14.4636 14.2531 14.4606 14.3145 14.4458 14.373C14.4309 14.4314 14.404 14.4861 14.3677 14.5342C14.3312 14.5824 14.2852 14.6231 14.2329 14.6533C14.1805 14.6836 14.1221 14.7034 14.062 14.7109C14.0021 14.7184 13.9414 14.7136 13.8833 14.6973C13.8251 14.6808 13.7704 14.653 13.7231 14.6152C13.6995 14.5963 13.678 14.5749 13.6587 14.5518L13.6079 14.4775L13.6069 14.4766L13.3745 14.1016C12.1587 12.2787 10.1793 11.2031 7.99951 11.2031C5.81987 11.2033 3.84125 12.2789 2.62549 14.1016L2.39209 14.4766V14.4775C2.36326 14.5306 2.32403 14.5775 2.27686 14.6152C2.22961 14.653 2.1749 14.6808 2.1167 14.6973C2.05846 14.7137 1.99705 14.7185 1.93701 14.7109C1.90702 14.7072 1.87763 14.7 1.84912 14.6904L1.76709 14.6533C1.7409 14.6382 1.71641 14.6205 1.69385 14.6006L1.63232 14.5342C1.61408 14.51 1.59848 14.4842 1.58545 14.457L1.5542 14.373C1.54676 14.3437 1.54297 14.3133 1.5415 14.2832L1.54541 14.1934C1.54996 14.1634 1.55753 14.1337 1.56787 14.1055L1.60693 14.0244L1.60791 14.0234C2.55408 12.3871 4.01176 11.2143 5.7124 10.6592L5.81104 10.627L5.72217 10.5742C4.88427 10.0754 4.2328 9.31572 3.86865 8.41113C3.50451 7.50648 3.44786 6.50666 3.70654 5.56641C3.93293 4.74386 4.38975 4.00595 5.02002 3.43848L5.30127 3.20605C6.07676 2.61521 7.02459 2.29501 7.99951 2.29492ZM8.69189 3.27148C8.00404 3.13466 7.29105 3.20436 6.64307 3.47266C5.99502 3.74109 5.441 4.19609 5.05127 4.7793C4.66153 5.36258 4.45264 6.04849 4.45264 6.75L4.45752 6.92578C4.50191 7.80201 4.86938 8.6335 5.49268 9.25684C6.11598 9.88014 6.94753 10.2476 7.82373 10.292L7.99951 10.2969C8.70088 10.2969 9.38701 10.0888 9.97021 9.69922C10.5534 9.30954 11.0084 8.75541 11.2769 8.10742C11.5453 7.45932 11.6159 6.74564 11.479 6.05762C11.3422 5.36982 11.0041 4.73814 10.5083 4.24219C10.0123 3.74617 9.37988 3.40835 8.69189 3.27148Z" fill="#818183" stroke="#818183" stroke-width="0.09375"/>
</svg>
